<?xml version="1.0" encoding="UTF-8"?>
<svg id="Layer_1" xmlns="http://www.w3.org/2000/svg" baseProfile="tiny" version="1.2" viewBox="0 0 245.2 341.19">
  <!-- Generator: Adobe Illustrator 29.8.1, SVG Export Plug-In . SVG Version: 2.1.1 Build 2)  -->
  <path d="M190.66,334.24c7.4,4.55,15.6,6.95,24.6,6.95s17.2-2.62,22.43-7.86c4.78-4.78,7.52-11.73,7.52-20.84v-44.75c0-2.39-1.93-4.44-4.44-4.44s-4.33,2.05-4.33,4.44v6.72c-4.78-6.38-11.96-11.84-23-11.84-14.01,0-27.67,10.59-27.67,27.79v.23c0,16.97,13.55,27.55,27.67,27.55,10.82,0,17.99-5.58,23.11-12.41v6.94c0,13.78-8.43,20.95-21.41,20.95-7.63,0-14.69-2.28-20.84-6.38-.57-.34-1.13-.57-1.93-.57-2.05,0-3.99,1.93-3.99,3.87,0,1.59.91,2.96,2.28,3.64M236.78,290.51c0,11.85-10.48,19.93-21.64,19.93s-20.38-8.2-20.38-20.04v-.23c0-12.07,9.22-19.81,20.38-19.81s21.64,7.86,21.64,19.93v.23h0ZM101.88,267.74c0-2.5-1.93-4.44-4.44-4.44s-4.33,2.05-4.33,4.44v51.12c0,2.51,1.94,4.44,4.44,4.44s4.33-1.94,4.33-4.44v-29.72c0-10.82,7.06-18.56,16.4-18.56s15.15,6.49,15.15,17.54v30.74c0,2.51,1.94,4.44,4.33,4.44s4.44-1.94,4.44-4.44v-30.06c0-11.61,7.29-18.22,16.17-18.22,9.57,0,15.26,6.38,15.26,17.76v30.51c0,2.51,1.93,4.44,4.44,4.44s4.32-1.94,4.32-4.44v-32.56c0-14.58-8.31-23.69-21.86-23.69-10.25,0-16.51,5.24-20.73,11.73-3.19-6.6-9.34-11.73-18.9-11.73s-15.14,5.35-19.01,11.16v-6.03h-.01ZM0,318.87c0,2.51,1.93,4.44,4.44,4.44s4.33-1.94,4.33-4.44v-29.72c0-10.82,7.06-18.56,16.4-18.56s15.15,6.49,15.15,17.54v30.74c0,2.51,1.93,4.44,4.33,4.44s4.44-1.94,4.44-4.44v-30.06c0-11.61,7.29-18.22,16.17-18.22,9.56,0,15.26,6.38,15.26,17.76v30.51c0,2.51,1.93,4.44,4.44,4.44s4.33-1.94,4.33-4.44v-32.56c0-14.58-8.31-23.69-21.86-23.69-10.25,0-16.51,5.24-20.72,11.73-3.19-6.6-9.34-11.73-18.9-11.73s-15.15,5.35-19.02,11.16v-6.03c0-2.5-1.94-4.44-4.44-4.44S.02,265.35.02,267.74v51.12h-.02ZM46.02,219.77c8.35-8.35,8.35-21.87,0-30.21-8.33-8.35-21.86-8.35-30.2,0-8.34,8.34-8.34,21.86,0,30.21,8.34,8.33,21.87,8.33,30.2,0M46.02,36.46c8.35-8.34,8.35-21.86,0-30.2-8.33-8.34-21.86-8.34-30.2,0s-8.34,21.86,0,30.2c8.34,8.35,21.87,8.35,30.2,0M229.32,219.77c8.34-8.35,8.34-21.87,0-30.21-8.33-8.35-21.86-8.35-30.2,0-8.34,8.34-8.34,21.86,0,30.21,8.35,8.33,21.87,8.33,30.2,0M229.32,36.46c8.34-8.34,8.34-21.86,0-30.2-8.33-8.34-21.86-8.34-30.2,0s-8.34,21.86,0,30.2c8.35,8.35,21.87,8.35,30.2,0M113.25,16.89c-.98-4.4-3.31-8.3-6.54-11.24-8.52-7.77-21.67-7.46-29.83.69-2.81,2.8-4.79,6.32-5.73,10.18-.94,3.9-.66,8.51-1.75,13.5-1.6,7.3-5.27,13.99-10.56,19.27-5.68,5.69-12.97,9.49-20.89,10.88-4.37.76-9.4.48-13.6,1.88-3.27,1.08-6.23,2.93-8.63,5.4-8.28,8.46-8.2,22.03.16,30.39,8.19,8.19,21.39,8.47,29.9.64,2.27-2.08,4.08-4.65,5.31-7.54,2.38-5.65,1.52-8.01,2.26-13.57.43-3.2,1.25-6.35,2.46-9.36,1.29-3.21,1.76-4.09,3.56-6.83,3.33-5.09,7.8-9.35,13.05-12.43,5.99-3.5,12.8-5.35,19.74-5.34,10.74,0,20.49,4.34,27.57,11.37,5.67,5.63,9.62,12.97,11.01,21.19.67,3.91.34,8.17,1.32,12.01.97,3.73,2.91,7.14,5.64,9.86,8.44,8.44,22.13,8.44,30.56,0,8.11-8.11,8.47-21.18.81-29.71-2.54-2.82-5.78-4.93-9.39-6.11-4.73-1.53-6.98-.96-11.74-1.58-8.79-1.13-16.67-5.18-22.63-11.15-6.25-6.22-10.2-14.38-11.21-23.14-.43-3.73-.04-5.66-.85-9.27M131.9,209.14c.98,4.4,3.32,8.31,6.53,11.25,8.52,7.78,21.67,7.46,29.84-.7,2.75-2.76,4.78-6.26,5.72-10.18.94-3.89.66-8.5,1.76-13.5,1.6-7.3,5.27-14,10.56-19.28,5.68-5.68,12.97-9.48,20.88-10.88,4.37-.76,9.41-.48,13.62-1.87,3.3-1.09,6.25-2.97,8.63-5.4,8.28-8.46,8.2-22.02-.17-30.39-8.18-8.19-21.37-8.47-29.9-.64-2.29,2.1-4.1,4.67-5.3,7.54-2.38,5.65-1.52,8.01-2.27,13.56-.43,3.21-1.26,6.36-2.46,9.36-1.28,3.21-1.77,4.09-3.55,6.83-3.33,5.09-7.8,9.36-13.07,12.43-5.98,3.5-12.79,5.34-19.72,5.33-10.76,0-20.5-4.35-27.58-11.36-5.67-5.63-9.62-12.97-11.02-21.19-.66-3.92-.33-8.18-1.31-12.01-.98-3.79-2.96-7.18-5.65-9.86-8.43-8.44-22.12-8.44-30.55,0-8.13,8.11-8.48,21.17-.81,29.71,2.51,2.79,5.73,4.92,9.38,6.11,4.72,1.54,6.98.96,11.75,1.57,8.57,1.11,16.53,5.03,22.63,11.14,6.07,6.08,10.16,14.15,11.21,23.15.43,3.73.04,5.65.85,9.26M218.7,103.69c4.41-.98,8.31-3.32,11.24-6.54,7.77-8.52,7.47-21.67-.7-29.83-2.81-2.8-6.33-4.78-10.18-5.72-3.89-.94-8.49-.66-13.5-1.76-7.3-1.59-13.98-5.27-19.28-10.56-5.69-5.68-9.49-12.97-10.88-20.89-.76-4.36-.48-9.4-1.88-13.6-1.08-3.27-2.93-6.23-5.4-8.63-8.46-8.28-22.02-8.19-30.39.17-8.18,8.2-8.47,21.38-.63,29.9,2.09,2.27,4.65,4.09,7.53,5.3,5.66,2.38,8.03,1.52,13.57,2.27,3.21.43,6.36,1.25,9.37,2.46,3.2,1.29,4.09,1.77,6.83,3.56,5.08,3.33,9.35,7.8,12.42,13.06,3.5,5.99,5.35,12.8,5.34,19.73,0,10.75-4.35,20.49-11.37,27.57-5.63,5.67-12.97,9.62-21.19,11.01-3.92.67-8.16.33-12,1.32-3.8.98-7.18,2.96-9.88,5.65-8.44,8.44-8.44,22.12,0,30.55,8.12,8.12,21.19,8.48,29.7.81,2.8-2.51,4.93-5.74,6.12-9.38,1.53-4.73.95-6.99,1.57-11.75,1.13-8.79,5.18-16.67,11.15-22.63,6.23-6.25,14.39-10.2,23.15-11.21,3.74-.43,5.65-.05,9.26-.86M26.44,122.34c3.61-.81,5.52-.42,9.26-.85,9.01-1.04,17.07-5.13,23.15-11.21,6.12-6.1,10.04-14.06,11.15-22.63.61-4.77.04-7.03,1.57-11.75,1.19-3.65,3.32-6.87,6.11-9.38,8.53-7.67,21.59-7.31,29.7.81,8.11,8.12,8.44,22.11,0,30.55-2.72,2.73-6.13,4.68-9.86,5.64-3.83.98-8.09.66-12.01,1.32-8.21,1.39-15.56,5.35-21.18,11.02-7.03,7.08-11.37,16.82-11.37,27.58,0,7.18,1.94,13.92,5.34,19.73,3.07,5.26,7.34,9.73,12.42,13.06,2.75,1.79,3.62,2.27,6.84,3.56,3,1.21,6.15,2.03,9.35,2.46,5.56.74,7.93-.11,13.57,2.27,2.87,1.2,5.44,3.01,7.54,5.3,7.82,8.51,7.55,21.71-.64,29.89-8.37,8.37-21.93,8.46-30.39.18-2.43-2.39-4.3-5.33-5.39-8.64-1.4-4.2-1.11-9.24-1.88-13.61-1.39-7.91-5.19-15.21-10.88-20.88-5.29-5.29-11.96-8.97-19.27-10.56-5-1.09-9.61-.81-13.51-1.75-3.92-.95-7.42-2.97-10.18-5.72-8.15-8.16-8.46-21.31-.69-29.84,2.95-3.22,6.84-5.55,11.24-6.53"/>
</svg>